<?xml version="1.0" standalone="no"?>
<!DOCTYPE svg PUBLIC "-//W3C//DTD SVG 20010904//EN"
 "http://www.w3.org/TR/2001/REC-SVG-20010904/DTD/svg10.dtd">
<svg version="1.0" xmlns="http://www.w3.org/2000/svg"
 width="600.000000pt" height="600.000000pt" viewBox="0 0 600.000000 600.000000"
 preserveAspectRatio="xMidYMid meet">
<metadata>
Created by potrace 1.11, written by Peter Selinger 2001-2013
</metadata>
<g transform="translate(0.000000,600.000000) scale(0.100000,-0.100000)"
fill="#000000" stroke="none">
<path d="M2255 5190 c-22 -3 -47 -10 -55 -15 -8 -5 -26 -11 -40 -13 -14 -2
-26 -7 -28 -13 -2 -5 -12 -9 -22 -9 -9 0 -23 -7 -30 -15 -7 -8 -16 -12 -21
-10 -4 3 -12 -3 -18 -12 -6 -10 -11 -14 -11 -9 0 4 -15 -3 -34 -18 -19 -14
-37 -26 -41 -26 -3 0 -18 -12 -34 -27 -15 -16 -42 -40 -60 -55 -18 -15 -30
-32 -26 -38 3 -5 0 -7 -8 -4 -9 3 -17 -3 -20 -18 -4 -13 -24 -42 -45 -64 -28
-31 -47 -68 -71 -138 -18 -53 -30 -100 -26 -105 3 -5 1 -12 -3 -15 -23 -14 1
-247 28 -281 5 -5 8 -13 7 -17 -1 -4 6 -17 16 -28 9 -11 17 -25 17 -30 0 -5 9
-14 20 -20 11 -6 20 -20 20 -31 0 -11 4 -17 10 -14 10 6 3 -22 -11 -40 -23
-31 -60 -175 -60 -235 1 -81 9 -142 20 -153 5 -5 7 -16 4 -23 -3 -8 0 -14 6
-14 7 0 11 -6 10 -12 -3 -16 25 -66 68 -121 l32 -41 -25 -29 c-13 -16 -24 -35
-24 -42 0 -7 -5 -15 -12 -17 -6 -2 -12 -13 -13 -24 -1 -10 -6 -28 -11 -39 -5
-11 -9 -67 -9 -125 1 -107 15 -173 52 -230 30 -46 108 -122 161 -156 34 -22
52 -41 52 -54 0 -11 -4 -20 -9 -20 -5 0 -12 -11 -15 -25 -4 -14 -10 -25 -15
-25 -5 0 -14 -13 -21 -30 -7 -16 -18 -30 -25 -30 -8 0 -11 -8 -8 -21 4 -14 11
-18 22 -13 9 3 24 9 34 11 9 3 17 9 17 14 0 5 6 9 13 9 7 0 23 9 35 20 29 28
42 25 42 -9 0 -46 21 -92 56 -123 18 -16 36 -28 39 -26 4 2 11 -5 16 -14 6
-10 16 -18 23 -18 8 0 19 -7 26 -15 14 -16 34 -10 24 7 -4 6 -2 8 3 5 6 -4 14
0 17 9 3 8 2 12 -4 9 -6 -3 -7 1 -4 10 4 8 0 25 -8 38 -25 39 -29 57 -12 57
10 0 14 -6 11 -15 -4 -8 -1 -17 5 -21 7 -5 8 -2 3 7 -6 11 -5 11 5 2 19 -17
26 -103 9 -115 -10 -7 -11 -11 -2 -14 7 -3 2 -14 -13 -31 -13 -14 -22 -29 -19
-33 8 -12 -25 -49 -73 -82 -26 -18 -50 -32 -54 -30 -5 1 -8 -5 -8 -13 0 -8 -6
-15 -14 -15 -7 0 -22 -12 -32 -27 -9 -16 -25 -33 -33 -40 -9 -7 -12 -13 -8
-13 4 0 -8 -17 -29 -37 -65 -68 -72 -82 -68 -145 4 -55 3 -58 -27 -80 -17 -13
-35 -22 -40 -21 -5 2 -9 -2 -9 -8 0 -5 -3 -8 -8 -5 -10 6 -37 -16 -46 -39 -5
-12 -10 -15 -13 -8 -5 14 -83 -22 -83 -38 0 -5 -7 -9 -15 -9 -9 0 -34 -12 -58
-27 -65 -42 -219 -114 -250 -117 -4 -1 -11 -6 -15 -12 -4 -6 -19 -14 -34 -18
-16 -3 -28 -11 -28 -16 0 -6 -7 -10 -15 -10 -23 0 -85 -32 -79 -42 3 -4 -1 -5
-9 -2 -8 3 -21 -2 -30 -10 -8 -8 -17 -13 -20 -10 -3 4 -18 -5 -33 -19 -15 -14
-33 -23 -39 -20 -7 2 -27 -9 -44 -26 -18 -17 -35 -31 -39 -31 -4 0 -14 -9 -22
-19 -7 -11 -17 -18 -21 -15 -7 4 -31 -19 -84 -81 -14 -16 -37 -55 -51 -85 -13
-30 -29 -63 -34 -72 -6 -10 -10 -22 -10 -27 0 -5 -5 -22 -12 -38 -6 -15 -13
-35 -14 -43 -2 -8 -5 -31 -8 -50 -3 -19 -8 -46 -11 -60 -3 -14 -8 -43 -11 -65
-3 -22 -8 -56 -11 -75 -8 -50 -13 -171 -15 -352 l-1 -158 -28 0 c-45 0 -59
-33 -59 -131 0 -46 2 -93 4 -104 3 -11 5 -30 5 -42 l1 -23 695 0 c382 0 695 4
695 8 0 4 -5 13 -10 18 -7 7 -4 16 9 28 18 16 20 16 53 -18 l35 -36 433 0
c358 0 431 2 427 13 -3 8 -8 38 -11 68 -11 92 -14 113 -21 139 -3 14 -8 36
-11 50 -3 14 -14 52 -25 84 -11 32 -22 84 -24 115 -3 31 -8 70 -12 86 -3 17
-7 41 -8 55 -4 48 -5 51 -12 47 -5 -3 -8 23 -8 56 -1 34 -4 85 -8 112 -15 91
-14 100 8 100 11 0 26 -5 33 -12 7 -6 34 -15 60 -19 26 -3 52 -9 57 -13 24
-14 295 -18 303 -4 4 6 18 11 32 11 53 -1 107 17 161 54 14 10 29 15 33 11 3
-3 6 -2 6 4 0 6 11 14 25 17 14 4 23 11 20 16 -3 6 0 10 7 10 8 0 20 9 28 19
7 11 17 18 21 15 4 -2 16 7 27 21 l20 25 7 -28 c5 -15 9 -38 10 -52 2 -14 10
-77 19 -140 9 -63 16 -116 16 -118 0 -2 3 -1 8 1 4 3 7 -18 7 -46 0 -29 3 -65
8 -82 4 -16 10 -68 13 -115 2 -47 7 -101 9 -120 2 -19 7 -93 11 -165 3 -72 7
-143 9 -160 2 -16 3 -36 4 -42 1 -10 134 -13 631 -13 591 0 631 1 637 18 4 9
17 25 29 35 17 13 22 26 19 55 -2 20 -4 39 -5 42 -1 3 -2 23 -2 45 0 22 -4 45
-10 52 -7 9 -7 13 1 13 7 0 9 13 6 36 -7 55 -15 74 -31 74 -8 0 -13 6 -11 12
1 7 -8 14 -21 16 -16 2 -22 8 -18 18 3 8 0 14 -7 14 -7 0 -8 3 -2 8 11 8 15
62 4 62 -4 0 -4 12 0 27 4 16 5 42 1 58 -15 62 -30 143 -45 245 -9 58 -20 118
-25 133 -6 17 -6 25 0 22 5 -3 3 13 -5 36 -8 23 -15 54 -15 70 0 15 -5 40 -11
56 -14 37 -21 64 -21 85 1 10 -4 20 -9 23 -5 4 -7 10 -4 15 3 5 -1 23 -10 39
-8 17 -15 39 -15 49 0 11 -6 25 -14 32 -8 6 -13 17 -10 24 3 7 -9 28 -26 45
-16 18 -30 35 -30 38 0 18 -140 163 -157 163 -7 0 -13 4 -13 8 0 10 -166 62
-198 62 -13 0 -32 5 -43 10 -13 8 -19 7 -19 0 0 -6 -7 -4 -16 4 -8 9 -23 16
-33 16 -9 0 -21 4 -27 8 -10 10 -79 34 -144 51 -25 7 -70 20 -100 29 -30 9
-57 17 -60 17 -3 0 -11 4 -17 8 -7 5 -18 5 -23 2 -6 -4 -9 -1 -8 7 2 7 -4 13
-12 14 -8 0 -28 6 -44 13 -16 6 -44 13 -64 16 -34 4 -46 10 -48 23 -1 9 -13
40 -27 72 -6 14 -11 27 -12 30 -1 3 -5 17 -9 33 -5 15 -12 27 -17 27 -5 0 -8
3 -7 8 9 32 -104 155 -177 193 -42 22 -51 32 -53 58 -3 29 1 33 42 51 25 10
46 24 46 30 0 7 6 10 13 7 52 -18 250 218 308 368 75 196 115 379 89 410 -7 8
-9 15 -4 15 5 0 15 4 21 8 16 10 61 132 57 155 -1 9 1 17 5 17 4 0 8 6 8 13 1
6 4 37 8 67 10 71 11 214 3 265 -8 44 -43 131 -58 140 -6 4 -4 20 5 42 8 19
12 39 9 45 -3 5 0 15 6 23 13 15 31 135 21 135 -3 0 -7 28 -8 63 -3 98 -10
148 -21 159 -6 6 -8 17 -5 24 3 8 1 14 -5 14 -9 0 -25 37 -23 53 1 4 -6 10
-14 13 -8 4 -15 11 -15 16 0 6 -8 17 -17 25 -12 9 -13 12 -3 8 8 -4 4 3 -10
14 -14 11 -29 21 -33 21 -5 0 -6 4 -3 9 3 5 -3 11 -14 14 -11 3 -20 12 -20 21
0 9 -6 16 -13 16 -8 0 -24 11 -37 25 -13 14 -28 25 -33 25 -5 0 -26 14 -47 30
-21 17 -42 30 -48 30 -5 0 -21 9 -36 21 -14 11 -26 17 -26 13 0 -4 -8 0 -17 8
-18 15 -47 28 -59 27 -4 0 -10 3 -13 8 -9 12 -70 43 -85 43 -18 0 -146 66
-140 72 10 11 -68 19 -80 9 -17 -15 -47 -7 -66 17 -10 12 -20 19 -23 16 -3 -3
-8 3 -11 13 -15 47 -215 80 -303 49 -34 -12 -36 -11 -81 31 -25 24 -53 43 -64
43 -10 0 -18 5 -18 12 0 6 -3 8 -6 5 -4 -3 -18 3 -32 13 -13 11 -33 20 -43 20
-11 0 -19 5 -19 11 0 5 -4 8 -9 5 -5 -4 -22 -1 -37 4 -32 13 -172 19 -229 10z
m1095 -598 c0 -4 10 -19 23 -32 12 -14 33 -47 47 -73 13 -26 28 -47 32 -47 3
0 21 -25 38 -56 18 -30 41 -60 51 -67 10 -6 19 -16 19 -22 0 -6 10 -17 21 -25
12 -8 32 -25 45 -38 13 -13 24 -20 24 -17 0 3 15 -5 33 -19 19 -15 39 -26 46
-26 7 0 10 -4 7 -9 -3 -5 1 -11 9 -15 8 -3 15 0 15 7 1 7 8 -1 17 -18 8 -16
22 -37 30 -47 17 -19 42 -118 43 -165 0 -30 -3 -33 -29 -33 -16 0 -42 -7 -57
-15 -16 -8 -36 -15 -45 -15 -9 0 -33 -7 -53 -15 -20 -8 -36 -12 -36 -8 0 4 -5
2 -12 -5 -16 -16 -45 -15 -51 2 -7 18 64 48 107 46 72 -4 82 4 46 38 -17 16
-28 18 -70 11 -28 -4 -56 -11 -62 -16 -7 -4 -17 -8 -23 -8 -32 -3 -162 -68
-198 -100 -16 -14 -29 -34 -30 -45 -1 -21 -26 -37 -28 -17 -8 70 14 147 42
147 10 0 20 -1 22 -1 2 -1 283 141 304 154 7 4 9 15 6 23 -5 13 -19 15 -82 10
-42 -2 -90 -10 -106 -17 -17 -7 -33 -12 -37 -11 -9 2 -90 -35 -110 -51 -9 -7
-20 -25 -23 -40 -4 -15 -11 -27 -16 -27 -12 0 -42 -68 -44 -99 -1 -15 -4 -31
-7 -36 -3 -6 -4 -22 -3 -37 3 -25 0 -28 -53 -39 -31 -6 -62 -15 -68 -20 -7 -6
-27 -9 -45 -8 -19 2 -44 -3 -56 -10 -13 -6 -23 -10 -24 -9 0 2 -2 11 -4 22 -5
28 -17 36 -76 51 -58 16 -265 15 -290 -1 -15 -9 -21 -10 -85 -18 l-42 -6 12
35 c7 19 14 37 17 39 3 3 86 6 184 7 99 1 192 7 208 12 27 9 34 28 21 62 -22
55 -168 56 -345 1 l-47 -14 10 35 c7 27 7 38 -4 44 -10 7 -9 9 5 9 11 0 17 8
17 24 0 13 7 43 15 66 8 24 17 61 20 84 4 35 9 71 20 156 1 8 5 22 8 30 4 8 8
25 10 37 2 12 6 26 10 29 4 4 7 18 7 31 0 32 36 66 61 58 11 -4 19 -2 19 5 0
6 5 8 10 5 6 -4 18 -1 27 7 12 9 15 9 9 1 -12 -20 1 -15 24 9 24 26 50 32 50
11 0 -13 3 -13 15 -3 8 7 13 15 11 19 -3 4 21 8 52 9 31 2 69 4 85 6 18 2 27
-1 27 -11 0 -10 5 -11 19 -4 10 6 21 8 24 4 4 -3 12 6 18 21 14 29 34 34 47
10 7 -13 13 -14 31 -4 17 9 26 9 36 0 11 -9 23 -8 52 7 21 10 37 24 36 31 -2
6 2 12 7 12 6 0 10 -3 10 -8z m600 -720 c13 -10 24 -27 25 -38 1 -10 5 -30 8
-44 15 -64 12 -272 -6 -350 -9 -41 -29 -102 -32 -98 -7 6 -36 461 -31 475 3 8
10 11 16 8 6 -4 10 5 10 19 0 23 -9 31 -33 27 -5 -1 -6 3 -2 9 9 14 20 13 45
-8z m-115 -93 c3 -35 8 -84 10 -109 2 -25 5 -52 7 -59 4 -19 -58 -49 -114 -56
-24 -3 -44 -10 -46 -15 -2 -5 -10 -6 -18 -3 -9 3 -25 1 -37 -5 -22 -11 -147
-39 -203 -46 -46 -6 -54 5 -60 75 -10 114 -8 149 10 167 15 15 16 15 16 -2 0
-36 34 -76 74 -88 37 -12 40 -11 67 20 16 18 29 43 29 56 0 34 10 56 26 56 7
0 28 6 46 14 56 25 178 65 185 61 2 -1 5 -30 8 -66z m-1500 1 c-2 -8 -7 -41
-9 -73 -5 -66 -45 -177 -63 -178 -7 0 -32 -1 -55 -1 -40 -1 -43 1 -39 23 4 33
64 148 96 186 15 17 26 34 26 37 -1 3 7 14 17 24 18 20 35 9 27 -18z m609 -96
c15 -10 17 -14 6 -15 -8 -1 -24 -3 -35 -4 -11 -2 -39 -5 -63 -8 -23 -3 -46 -8
-51 -12 -5 -3 -12 -1 -15 4 -4 5 -2 12 4 16 5 3 10 15 10 27 0 19 4 20 62 14
34 -4 71 -14 82 -22z m-347 -38 c2 -43 1 -44 -35 -50 -47 -8 -88 -29 -84 -44
1 -7 -7 -12 -18 -12 -16 0 -18 3 -10 18 5 9 18 38 29 63 16 36 25 45 43 44 12
-1 34 4 48 12 14 7 25 13 25 13 0 0 1 -20 2 -44z m669 -18 c6 -26 10 -49 8
-51 -3 -2 2 -17 11 -33 8 -16 15 -36 15 -45 0 -9 3 -19 7 -23 5 -4 13 -29 20
-54 6 -26 21 -72 32 -102 17 -46 18 -58 7 -75 -40 -62 -41 -65 -30 -83 16 -25
36 -21 54 13 8 17 18 32 22 35 12 10 21 80 9 80 -6 0 -10 3 -9 8 0 4 -1 14 -4
22 -14 37 -37 115 -34 117 2 2 33 5 70 7 38 2 71 7 75 12 3 5 13 9 21 9 8 -1
26 4 40 10 14 7 31 10 38 8 7 -3 20 -2 30 3 9 4 26 9 37 11 11 2 27 6 35 9 8
4 31 8 50 11 19 2 56 14 81 27 27 14 46 19 46 12 3 -82 14 -210 19 -218 4 -6
3 -9 -2 -5 -5 3 -10 -16 -10 -41 -2 -70 -12 -195 -17 -212 -3 -8 -15 -55 -28
-105 -12 -49 -25 -94 -29 -100 -4 -5 -10 -22 -14 -37 -8 -34 -45 -98 -57 -98
-5 0 -9 -5 -9 -11 0 -20 -131 -179 -148 -179 -4 0 -22 -14 -41 -30 -18 -17
-38 -32 -44 -33 -6 -1 -18 -8 -25 -15 -8 -7 -34 -18 -57 -24 -24 -7 -42 -14
-40 -17 2 -3 -11 -7 -28 -7 -18 -1 -54 -4 -82 -7 -50 -6 -235 13 -330 34 -69
15 -93 23 -197 68 -26 12 -51 21 -57 21 -5 0 -11 3 -13 8 -1 4 -36 28 -75 55
-40 26 -73 52 -73 59 0 6 -3 9 -6 5 -3 -3 -14 2 -24 11 -16 15 -17 24 -9 72
17 96 17 178 2 240 -9 33 -20 60 -25 60 -5 0 -6 5 -3 10 3 6 1 10 -5 10 -6 0
-9 4 -6 9 3 4 -3 27 -14 49 -11 23 -20 52 -20 65 0 13 -3 27 -7 31 -4 4 -8 21
-9 39 -1 18 -3 50 -4 72 -2 22 0 64 4 93 7 44 12 53 33 58 13 4 30 1 36 -5 6
-6 8 -11 4 -11 -3 0 -2 -11 3 -25 7 -18 6 -25 -3 -25 -8 0 -9 -3 -1 -8 6 -4
10 -17 9 -30 -3 -33 29 -96 58 -115 27 -18 115 -29 123 -15 3 4 21 8 40 8 19
0 34 4 34 8 0 4 15 9 33 9 28 1 72 9 72 13 0 1 11 3 25 6 14 2 36 9 50 14 14
5 36 11 50 13 59 10 90 20 103 36 20 23 38 79 27 86 -5 3 -5 15 -1 28 5 12 5
33 1 47 -15 58 10 138 45 141 28 3 33 4 40 11 4 4 19 6 33 5 22 -2 28 -9 38
-49z m59 5 l3 -38 -14 33 c-8 18 -12 38 -8 43 10 16 16 4 19 -38z m-274 -20
c0 -10 2 -29 4 -43 7 -46 7 -148 0 -169 -3 -12 -15 -21 -25 -21 -10 0 -21 -4
-24 -8 -3 -5 -15 -8 -28 -7 -13 1 -27 -1 -33 -5 -5 -5 -28 -11 -50 -14 -22 -4
-53 -11 -70 -16 -76 -23 -259 -45 -249 -29 2 4 -2 9 -10 12 -11 5 -21 39 -32
112 -18 126 -18 125 2 126 10 0 31 3 46 5 19 3 30 -1 37 -15 9 -16 58 -41 82
-41 13 0 79 69 79 84 0 13 31 24 100 32 19 3 35 6 36 7 1 1 32 3 68 5 58 3 66
1 67 -15z m-1035 -94 c3 -5 12 -9 20 -9 8 0 35 -20 59 -44 35 -36 45 -54 51
-93 l7 -48 -34 33 c-119 114 -167 144 -194 122 -6 -5 -16 -6 -20 -2 -5 4 -5 1
-1 -6 5 -8 1 -19 -10 -27 -11 -8 -15 -15 -11 -15 5 0 1 -7 -7 -16 -9 -8 -16
-23 -16 -33 0 -10 -7 -32 -16 -50 -16 -31 -23 -126 -10 -138 13 -13 35 22 41
65 4 26 11 58 17 72 26 66 44 95 60 98 20 4 98 -69 98 -92 0 -9 -4 -16 -8 -16
-14 0 -42 -93 -40 -133 1 -41 27 -73 91 -113 28 -19 37 -31 37 -52 -1 -37 -22
-62 -54 -62 -33 0 -45 -26 -20 -44 12 -9 27 -11 46 -5 15 4 28 6 28 3 0 -2 9
5 19 15 33 33 42 87 24 132 -8 21 -19 39 -23 39 -5 0 -15 6 -22 13 -22 21 -73
52 -81 49 -4 -1 -3 6 2 17 6 10 7 21 4 25 -4 3 -2 16 4 29 37 79 35 78 52 63
11 -10 21 -12 32 -6 14 8 18 -4 34 -90 9 -55 21 -100 25 -100 9 0 36 -69 32
-82 -1 -5 2 -8 8 -8 5 0 8 -10 6 -22 -2 -13 1 -28 6 -35 10 -13 -10 -73 -24
-73 -16 0 -23 -3 -41 -15 -19 -14 -84 -10 -137 7 -19 7 -38 11 -42 10 -5 -1
-8 5 -8 13 0 8 -7 15 -16 15 -8 0 -46 31 -83 69 -56 57 -70 79 -86 130 -29 95
-24 270 8 305 9 11 17 25 17 31 0 12 39 50 79 75 24 16 87 15 97 -1z m209 -30
c39 -4 62 -18 46 -29 -13 -8 -21 -80 -9 -80 7 0 7 -4 0 -13 -12 -14 -8 -86 6
-113 11 -20 20 -46 19 -54 -1 -3 6 -18 15 -35 8 -16 20 -41 26 -55 5 -14 15
-38 22 -55 8 -16 12 -36 11 -42 -1 -7 2 -13 7 -13 5 0 9 -6 9 -12 0 -7 4 -49
8 -93 l7 -80 -30 30 c-16 17 -28 33 -26 37 3 4 -2 10 -10 15 -8 4 -15 10 -15
13 0 3 -14 35 -30 72 -17 37 -31 72 -31 78 0 5 -4 10 -8 10 -4 0 -8 8 -8 18
-1 9 -11 53 -24 97 -12 44 -26 96 -30 115 -5 19 -13 54 -19 76 -15 55 -14 102
2 118 6 8 14 10 17 6 3 -4 23 -10 45 -11z m266 -939 c6 0 7 -4 4 -10 -3 -5 0
-10 7 -10 8 0 28 -13 46 -30 18 -16 39 -30 46 -30 8 0 19 -7 26 -15 7 -9 15
-14 17 -11 2 2 33 -11 68 -29 40 -20 66 -28 68 -21 3 6 14 0 26 -13 12 -14 21
-19 21 -11 0 10 4 8 13 -4 7 -10 28 -18 51 -19 22 -2 41 -8 44 -15 3 -10 7
-10 20 0 12 10 14 10 8 1 -5 -9 -1 -13 11 -14 10 0 27 -2 38 -5 39 -8 100 -17
123 -18 12 -1 22 -5 22 -10 0 -5 51 -6 115 -3 l115 6 0 -27 c0 -23 -11 -96
-26 -182 -3 -14 -7 -38 -9 -55 -2 -16 -11 -58 -19 -93 -18 -80 -16 -163 5
-185 15 -14 17 -14 30 9 10 19 10 34 2 64 -6 24 -6 40 -1 40 5 0 7 4 3 9 -3 5
0 13 6 16 6 4 8 18 5 30 -3 13 -1 27 4 30 6 4 8 10 5 15 -3 5 -1 20 5 34 7 19
6 26 -2 26 -6 0 -9 3 -5 6 3 4 22 -4 41 -16 20 -12 41 -18 47 -14 8 4 9 3 5
-4 -4 -7 2 -16 17 -21 23 -9 32 -27 44 -91 2 -13 10 -31 16 -39 10 -12 9 -13
-2 -7 -10 7 -12 4 -7 -12 7 -21 12 -43 21 -96 3 -16 10 -36 15 -45 4 -9 11
-37 15 -61 4 -25 10 -49 13 -55 4 -5 7 -14 8 -20 1 -5 9 -37 18 -70 8 -33 18
-98 21 -145 3 -47 8 -114 11 -150 l6 -65 -44 -37 c-61 -50 -163 -111 -223
-133 -27 -10 -55 -22 -61 -27 -6 -4 -14 -5 -17 -1 -4 3 -7 2 -7 -3 0 -14 -208
-21 -270 -9 -52 10 -83 15 -105 18 -11 2 -29 8 -40 14 -11 6 -35 14 -53 18
-18 3 -30 10 -27 15 3 5 0 10 -5 12 -6 2 -13 17 -15 33 -2 17 -4 31 -4 33 -1
1 -1 4 -1 7 -2 19 -33 89 -53 123 -14 21 -29 56 -33 77 -4 21 -15 45 -25 53
-11 9 -19 22 -19 30 0 7 -7 15 -15 18 -8 4 -15 11 -15 16 0 6 -13 27 -30 48
-16 21 -30 41 -30 44 0 10 -83 130 -100 143 -8 7 -11 13 -7 13 5 0 -7 22 -27
49 -20 27 -36 52 -36 57 0 4 -6 15 -13 23 -8 9 -20 32 -27 51 -7 19 -18 41
-24 48 -5 8 -12 24 -13 35 -2 12 -8 24 -13 25 -6 2 -8 7 -5 12 3 4 -4 28 -15
51 -31 69 -27 92 23 129 33 24 43 28 45 15 4 -18 38 -20 40 -2 1 6 4 24 7 40
14 73 26 195 30 307 4 106 4 103 21 96 9 -3 20 -6 25 -6z m-93 -102 c2 -9 -10
-18 -32 -25 l-35 -11 22 29 c22 30 40 33 45 7z m722 -94 c0 -2 -7 -4 -15 -4
-8 0 -15 4 -15 10 0 5 7 7 15 4 8 -4 15 -8 15 -10z m-919 -1126 c7 -13 12 -24
11 -25 -7 -10 0 -23 8 -18 6 3 13 -2 17 -12 4 -10 9 -20 12 -23 3 -3 12 -15
19 -28 10 -19 10 -28 -5 -55 -9 -17 -17 -36 -18 -42 0 -16 -32 -17 -48 -1 -9
9 -12 25 -9 43 5 25 4 26 -11 12 -9 -10 -31 -16 -54 -15 -48 1 -55 25 -19 61
29 29 32 36 14 33 -15 -4 -33 45 -25 66 5 13 11 15 26 7 14 -8 22 -7 31 4 18
21 37 18 51 -7z m2221 -266 c8 -29 11 -31 29 -21 38 20 61 -24 27 -49 -17 -12
-17 -15 -3 -35 8 -12 15 -24 15 -28 0 -11 -64 -8 -71 3 -5 7 -18 2 -40 -16
-28 -24 -34 -25 -46 -13 -12 11 -12 19 -4 35 10 18 8 24 -14 38 -14 9 -25 25
-25 35 0 19 15 20 67 4 7 -2 15 1 19 7 5 7 3 8 -5 3 -19 -11 -10 47 9 62 22
18 33 11 42 -25z m-3236 -667 c14 -22 18 -23 31 -9 9 8 25 14 37 12 18 -3 21
-9 18 -40 -2 -30 1 -38 14 -38 12 0 14 -3 5 -13 -8 -10 -26 -12 -78 -5 -62 7
-89 21 -77 40 3 4 1 8 -4 8 -16 0 -23 30 -12 51 15 26 46 24 66 -6z"/>
<path d="M3188 3188 c-20 -7 -28 -17 -28 -33 0 -21 5 -24 38 -25 20 0 48 -1
61 -3 19 -1 26 4 31 23 4 14 2 31 -3 38 -11 14 -60 15 -99 0z"/>
<path d="M3517 2988 c-8 -4 -35 -15 -62 -24 -27 -9 -59 -23 -72 -31 -15 -10
-54 -17 -111 -18 -48 -2 -114 -10 -147 -18 -33 -8 -64 -11 -68 -7 -15 13 -70
-4 -73 -23 -3 -23 41 -41 76 -31 14 4 34 8 45 9 11 0 38 6 60 13 49 14 144 22
150 12 8 -13 61 -3 111 23 29 14 65 28 80 31 30 6 64 38 64 61 0 14 -31 16
-53 3z"/>
</g>
</svg>
